<?xml version="1.0" standalone="no"?>
<!DOCTYPE svg PUBLIC "-//W3C//DTD SVG 20010904//EN"
 "http://www.w3.org/TR/2001/REC-SVG-20010904/DTD/svg10.dtd">
<svg version="1.0" xmlns="http://www.w3.org/2000/svg"
 width="560.000000pt" height="234.000000pt" viewBox="0 0 560.000000 234.000000"
 preserveAspectRatio="xMidYMid meet">
<metadata>
Created by potrace 1.16, written by Peter Selinger 2001-2019
</metadata>
<g transform="translate(0.000000,234.000000) scale(0.100000,-0.100000)"
fill="#000000" stroke="none">
<path d="M0 1170 l0 -1170 2800 0 2800 0 0 1170 0 1170 -2800 0 -2800 0 0
-1170z m2682 237 l178 178 0 -363 0 -362 -60 0 -60 0 0 212 0 213 -118 -118
-117 -117 -183 183 -182 182 0 84 0 83 182 -177 182 -176 178 178z m827 -299
c1 -5 -29 -8 -67 -8 l-67 0 -51 102 -51 102 -113 -222 -114 -222 -68 0 -68 0
181 362 181 363 119 -235 c65 -129 118 -238 118 -242z m829 240 c-1 -128 -4
-290 -6 -360 l-3 -128 -60 0 -59 0 0 150 0 150 -175 0 -175 0 0 -150 0 -150
-65 0 -65 0 0 152 0 152 57 58 57 58 107 0 c58 0 140 3 182 6 l77 7 0 143 0
144 65 0 66 0 -3 -232z m222 -128 l0 -236 -65 -64 -65 -64 0 364 0 364 65 -64
65 -64 0 -236z m-2945 161 c84 -38 142 -134 133 -222 -3 -36 -2 -37 34 -43 50
-8 105 -58 118 -107 26 -95 -49 -189 -150 -189 -45 0 -27 26 22 33 48 6 85 38
99 87 22 73 -41 150 -124 150 l-37 0 6 54 c11 93 -31 171 -111 207 -85 39
-182 13 -236 -64 -29 -42 -34 -44 -69 -40 -70 10 -129 -40 -133 -113 -3 -36
-5 -39 -42 -46 -78 -17 -120 -88 -95 -162 13 -41 63 -76 108 -76 17 0 32 -6
36 -15 10 -26 -73 -19 -115 9 -104 71 -88 214 30 265 39 17 51 27 51 44 0 60
76 127 144 127 33 0 44 6 77 44 63 72 170 96 254 57z m-64 -275 c86 -41 138
-123 139 -219 0 -139 -101 -241 -240 -241 -100 0 -187 57 -224 146 -31 74 -14
189 36 248 21 25 81 67 113 78 41 16 132 9 176 -12z m2052 -181 c15 -31 27
-58 27 -60 0 -3 -29 -5 -65 -5 l-65 0 -30 60 -30 60 68 0 68 0 27 -55z m-1343
-305 c0 -5 -11 -10 -25 -10 -24 0 -25 -2 -25 -65 0 -37 -4 -65 -10 -65 -6 0
-10 28 -10 65 0 63 -1 65 -26 65 -14 0 -23 4 -19 10 3 6 31 10 61 10 30 0 54
-4 54 -10z m130 0 c0 -5 -16 -10 -35 -10 -28 0 -35 -4 -35 -20 0 -16 7 -20 35
-20 19 0 35 -4 35 -10 0 -5 -16 -10 -35 -10 -31 0 -35 -3 -35 -25 0 -22 4 -25
35 -25 19 0 35 -4 35 -10 0 -5 -22 -10 -50 -10 l-50 0 0 68 c0 38 3 72 7 75
10 11 93 8 93 -3z m144 4 c9 -3 16 -13 16 -20 0 -12 -4 -12 -21 -3 -50 26
-101 -40 -63 -82 14 -16 27 -20 52 -15 23 3 32 1 29 -7 -7 -22 -74 -20 -96 2
-57 57 8 154 83 125z m84 -27 c3 -23 8 -27 38 -27 31 0 34 2 34 30 0 17 5 30
10 30 6 0 10 -32 10 -75 0 -43 -4 -75 -10 -75 -5 0 -10 14 -10 30 0 28 -3 30
-35 30 -32 0 -35 -2 -35 -30 0 -20 -5 -30 -15 -30 -12 0 -15 15 -15 76 0 56 3
75 13 72 6 -3 13 -17 15 -31z m189 -19 l32 -53 1 53 c0 38 4 52 13 50 8 -3 13
-30 15 -76 2 -60 0 -72 -13 -72 -9 0 -24 14 -33 31 -9 17 -25 41 -34 53 -17
21 -17 20 -18 -31 0 -29 -4 -53 -10 -53 -6 0 -10 32 -10 75 0 92 12 96 57 23z
m223 27 c28 -30 30 -77 5 -105 -45 -50 -147 1 -131 64 16 63 84 85 126 41z
m171 14 c11 -5 17 -14 14 -20 -4 -5 -14 -5 -26 2 -49 26 -95 -29 -64 -77 14
-22 22 -25 52 -21 24 4 33 2 30 -6 -2 -7 -18 -13 -36 -15 -70 -7 -107 73 -56
123 26 27 54 31 86 14z m155 -14 c15 -23 15 -27 0 -50 -12 -19 -14 -30 -6 -44
13 -25 13 -31 0 -31 -6 0 -16 11 -22 25 -6 14 -19 25 -30 25 -13 0 -18 -7 -18
-25 0 -16 -6 -25 -15 -25 -12 0 -15 15 -15 75 l0 75 45 0 c36 0 47 -4 61 -25z
m144 15 c0 -5 -18 -10 -40 -10 -33 0 -40 -3 -40 -20 0 -16 7 -20 35 -20 44 0
46 -18 3 -22 -25 -2 -34 -8 -36 -25 -3 -21 1 -23 37 -23 23 0 41 -4 41 -10 0
-5 -22 -10 -50 -10 l-50 0 0 75 0 75 50 0 c28 0 50 -4 50 -10z m105 1 c3 -6
17 -39 30 -75 20 -54 22 -66 10 -66 -8 0 -15 7 -15 15 0 22 -59 20 -76 -2 -26
-36 -25 -2 1 66 26 68 37 82 50 62z m195 -1 c0 -5 -11 -10 -25 -10 -24 0 -25
-2 -25 -65 0 -37 -4 -65 -10 -65 -6 0 -10 28 -10 65 0 63 -1 65 -25 65 -14 0
-25 5 -25 10 0 6 27 10 60 10 33 0 60 -4 60 -10z m130 0 c0 -5 -16 -10 -35
-10 -28 0 -35 -4 -35 -20 0 -15 7 -20 29 -20 17 0 33 -4 36 -10 4 -6 -8 -10
-29 -10 -32 0 -36 -3 -36 -25 0 -22 4 -25 35 -25 19 0 35 -4 35 -10 0 -5 -22
-10 -50 -10 l-50 0 0 75 0 75 50 0 c28 0 50 -4 50 -10z m130 -5 c17 -21 7 -29
-18 -14 -20 13 -52 7 -52 -10 0 -5 17 -18 38 -28 30 -15 37 -23 37 -48 0 -28
-3 -30 -42 -33 -34 -3 -44 1 -53 17 -9 17 -8 21 5 21 8 0 15 -4 15 -10 0 -5
14 -10 30 -10 42 0 38 24 -7 47 -40 19 -56 58 -31 74 21 14 64 10 78 -6z"/>
<path d="M2671 1356 l-165 -165 -165 161 -166 162 -3 -44 -3 -43 168 -169 168
-168 132 132 133 133 0 -233 0 -232 35 0 35 0 0 315 c0 173 -1 315 -3 315 -1
0 -76 -74 -166 -164z"/>
<path d="M3116 1211 c-86 -171 -156 -313 -156 -316 0 -3 17 -5 38 -5 l37 0
119 237 118 238 59 -118 59 -117 40 0 40 0 -96 193 c-53 105 -98 194 -100 196
-1 2 -73 -137 -158 -308z"/>
<path d="M4240 1405 l0 -145 -188 0 -188 0 -52 -53 -52 -53 0 -132 0 -132 35
0 35 0 0 150 0 150 205 0 205 0 0 -150 0 -150 35 0 35 0 0 330 0 330 -35 0
-35 0 0 -145z"/>
<path d="M4460 1219 l0 -293 35 34 35 34 0 232 0 232 -35 26 -35 27 0 -292z"/>
<path d="M1343 1070 c-38 -23 -39 -26 -14 -39 16 -9 23 -5 45 24 31 40 18 46
-31 15z"/>
<path d="M1526 1055 c22 -29 29 -33 45 -24 25 13 24 16 -13 39 -50 31 -63 25
-32 -15z"/>
<path d="M1406 1050 l-29 -35 27 -3 c35 -4 38 -1 34 39 l-3 33 -29 -34z"/>
<path d="M1460 1047 c0 -41 17 -55 46 -39 14 8 13 13 -15 43 l-30 34 -1 -38z"/>
<path d="M1265 996 c-9 -13 -19 -40 -22 -60 l-6 -36 41 0 c38 0 40 2 46 36 4
19 9 41 12 48 3 7 -7 18 -21 24 -34 15 -32 16 -50 -12z"/>
<path d="M1582 1006 c-12 -6 -20 -16 -18 -23 3 -6 8 -28 12 -47 6 -34 8 -36
46 -36 l41 0 -6 36 c-6 37 -32 85 -45 83 -4 -1 -17 -6 -30 -13z"/>
<path d="M1356 949 c-10 -49 -9 -50 37 -47 38 3 42 6 45 32 4 32 -10 46 -49
46 -22 0 -28 -6 -33 -31z"/>
<path d="M1472 971 c-8 -5 -12 -21 -10 -37 3 -27 7 -29 47 -32 l44 -3 -7 32
c-3 17 -6 35 -6 40 0 11 -51 11 -68 0z"/>
<path d="M1240 850 c0 -12 9 -39 20 -61 l21 -39 30 16 c22 11 29 20 24 32 -3
9 -9 29 -12 45 -5 24 -10 27 -44 27 -33 0 -39 -3 -39 -20z"/>
<path d="M1354 838 c9 -44 18 -51 55 -43 27 6 31 11 31 41 0 34 0 34 -46 34
l-46 0 6 -32z"/>
<path d="M1460 836 c0 -30 3 -34 33 -39 38 -6 45 -1 53 41 l7 32 -47 0 c-46 0
-46 0 -46 -34z"/>
<path d="M1577 843 c-3 -16 -9 -36 -12 -45 -5 -12 2 -21 24 -32 l30 -16 21 39
c32 63 28 81 -19 81 -34 0 -39 -3 -44 -27z"/>
<path d="M1387 764 c-8 -8 31 -64 44 -64 5 0 9 16 9 35 0 30 -3 35 -23 35 -13
0 -27 -3 -30 -6z"/>
<path d="M1460 728 l1 -43 29 34 c32 38 31 51 -6 51 -22 0 -24 -4 -24 -42z"/>
<path d="M1325 736 c-18 -13 -17 -15 15 -35 52 -31 64 -27 38 14 -26 40 -27
40 -53 21z"/>
<path d="M1522 714 l-23 -36 23 7 c13 4 34 14 47 22 23 15 24 16 6 29 -26 19
-27 19 -53 -22z"/>
<path d="M3482 953 c30 -62 31 -63 69 -63 l39 0 -17 35 c-15 31 -21 35 -56 35
-21 0 -37 -3 -35 -7z"/>
<path d="M2946 594 c-19 -18 -21 -65 -4 -82 7 -7 24 -12 38 -12 33 0 50 17 50
50 0 49 -52 76 -84 44z"/>
<path d="M3280 581 c0 -23 5 -31 18 -31 49 1 58 53 9 58 -24 3 -27 0 -27 -27z"/>
<path d="M3581 567 c-14 -37 -14 -37 9 -37 21 0 24 12 10 45 -7 19 -9 18 -19
-8z"/>
</g>
</svg>
